<mxfile host="app.diagrams.net" agent="Mozilla/5.0 (Windows NT 10.0; Win64; x64) AppleWebKit/537.36 (KHTML, like Gecko) Chrome/141.0.0.0 Safari/537.36 Edg/141.0.0.0" version="28.2.7">
  <diagram name="Page-1" id="dM8tztQt9NShFwbWACDo">
    <mxGraphModel dx="1725" dy="1635" grid="1" gridSize="10" guides="1" tooltips="1" connect="1" arrows="1" fold="1" page="1" pageScale="1" pageWidth="827" pageHeight="1169" math="0" shadow="0">
      <root>
        <mxCell id="0" />
        <mxCell id="1" parent="0" />
        <mxCell id="X_MjAL0PS5dbDgNzfMxT-56" value="" style="ellipse;whiteSpace=wrap;html=1;fillColor=#2F2F37;strokeColor=none;" vertex="1" parent="1">
          <mxGeometry x="910" y="3190" width="100" height="100" as="geometry" />
        </mxCell>
        <mxCell id="X_MjAL0PS5dbDgNzfMxT-1" value="" style="rounded=0;whiteSpace=wrap;html=1;fillColor=#F5F7FA;strokeColor=none;arcSize=10;" vertex="1" parent="1">
          <mxGeometry x="760" y="2080" width="400" height="400" as="geometry" />
        </mxCell>
        <mxCell id="X_MjAL0PS5dbDgNzfMxT-15" value="" style="rounded=0;whiteSpace=wrap;html=1;strokeColor=none;fillColor=#4C6EF5;rotation=-180;" vertex="1" parent="1">
          <mxGeometry x="967.5454545454545" y="2160" width="72.72727272727275" height="240" as="geometry" />
        </mxCell>
        <mxCell id="X_MjAL0PS5dbDgNzfMxT-3" value="" style="ellipse;whiteSpace=wrap;html=1;fillColor=#4C6EF5;strokeColor=none;" vertex="1" parent="1">
          <mxGeometry x="865.1818181818182" y="2120" width="87.27272727272727" height="80" as="geometry" />
        </mxCell>
        <mxCell id="X_MjAL0PS5dbDgNzfMxT-4" value="" style="ellipse;whiteSpace=wrap;html=1;fillColor=#4C6EF5;strokeColor=none;" vertex="1" parent="1">
          <mxGeometry x="821.5454545454545" y="2173.3333333333335" width="87.27272727272727" height="80" as="geometry" />
        </mxCell>
        <mxCell id="X_MjAL0PS5dbDgNzfMxT-5" value="" style="ellipse;whiteSpace=wrap;html=1;fillColor=#4C6EF5;strokeColor=none;" vertex="1" parent="1">
          <mxGeometry x="807" y="2240" width="87.27272727272727" height="80" as="geometry" />
        </mxCell>
        <mxCell id="X_MjAL0PS5dbDgNzfMxT-6" value="" style="ellipse;whiteSpace=wrap;html=1;fillColor=#4C6EF5;strokeColor=none;" vertex="1" parent="1">
          <mxGeometry x="821.5454545454545" y="2306.6666666666665" width="87.27272727272727" height="80" as="geometry" />
        </mxCell>
        <mxCell id="X_MjAL0PS5dbDgNzfMxT-7" value="" style="ellipse;whiteSpace=wrap;html=1;fillColor=#4C6EF5;strokeColor=none;" vertex="1" parent="1">
          <mxGeometry x="865.1818181818182" y="2360" width="87.27272727272727" height="80" as="geometry" />
        </mxCell>
        <mxCell id="X_MjAL0PS5dbDgNzfMxT-8" value="" style="rounded=0;whiteSpace=wrap;html=1;strokeColor=none;fillColor=#4C6EF5;" vertex="1" parent="1">
          <mxGeometry x="879.7272727272727" y="2160" width="72.72727272727275" height="240" as="geometry" />
        </mxCell>
        <mxCell id="qqk2YeIDn_j3kmsEYsQR-13" value="" style="rounded=1;whiteSpace=wrap;html=1;fillColor=#F8EDE3;strokeColor=none;arcSize=10;" parent="1" vertex="1">
          <mxGeometry x="240" y="760" width="400" height="400" as="geometry" />
        </mxCell>
        <mxCell id="o53D91jLIQOZ8q07HQFA-19" value="" style="group" parent="1" vertex="1" connectable="0">
          <mxGeometry x="280" y="800" width="320" height="320" as="geometry" />
        </mxCell>
        <mxCell id="o53D91jLIQOZ8q07HQFA-6" value="" style="ellipse;whiteSpace=wrap;html=1;fillColor=#7D6E83;strokeColor=none;" parent="o53D91jLIQOZ8q07HQFA-19" vertex="1">
          <mxGeometry x="58.181818181818194" width="87.27272727272727" height="80" as="geometry" />
        </mxCell>
        <mxCell id="o53D91jLIQOZ8q07HQFA-7" value="" style="ellipse;whiteSpace=wrap;html=1;fillColor=#7D6E83;strokeColor=none;" parent="o53D91jLIQOZ8q07HQFA-19" vertex="1">
          <mxGeometry x="14.545454545454549" y="53.333333333333336" width="87.27272727272727" height="80" as="geometry" />
        </mxCell>
        <mxCell id="o53D91jLIQOZ8q07HQFA-8" value="" style="ellipse;whiteSpace=wrap;html=1;fillColor=#7D6E83;strokeColor=none;" parent="o53D91jLIQOZ8q07HQFA-19" vertex="1">
          <mxGeometry y="120" width="87.27272727272727" height="80" as="geometry" />
        </mxCell>
        <mxCell id="o53D91jLIQOZ8q07HQFA-9" value="" style="ellipse;whiteSpace=wrap;html=1;fillColor=#7D6E83;strokeColor=none;" parent="o53D91jLIQOZ8q07HQFA-19" vertex="1">
          <mxGeometry x="14.545454545454549" y="186.66666666666666" width="87.27272727272727" height="80" as="geometry" />
        </mxCell>
        <mxCell id="o53D91jLIQOZ8q07HQFA-10" value="" style="ellipse;whiteSpace=wrap;html=1;fillColor=#7D6E83;strokeColor=none;" parent="o53D91jLIQOZ8q07HQFA-19" vertex="1">
          <mxGeometry x="58.181818181818194" y="240" width="87.27272727272727" height="80" as="geometry" />
        </mxCell>
        <mxCell id="o53D91jLIQOZ8q07HQFA-11" value="" style="rounded=0;whiteSpace=wrap;html=1;strokeColor=none;fillColor=#7D6E83;" parent="o53D91jLIQOZ8q07HQFA-19" vertex="1">
          <mxGeometry x="72.72727272727275" y="40" width="72.72727272727275" height="240" as="geometry" />
        </mxCell>
        <mxCell id="o53D91jLIQOZ8q07HQFA-18" value="" style="group;rotation=-180;" parent="o53D91jLIQOZ8q07HQFA-19" vertex="1" connectable="0">
          <mxGeometry x="174.54545454545453" width="145.4545454545455" height="320" as="geometry" />
        </mxCell>
        <mxCell id="o53D91jLIQOZ8q07HQFA-12" value="" style="ellipse;whiteSpace=wrap;html=1;fillColor=#7D6E83;strokeColor=none;rotation=-180;" parent="o53D91jLIQOZ8q07HQFA-18" vertex="1">
          <mxGeometry y="240" width="87.27272727272727" height="80" as="geometry" />
        </mxCell>
        <mxCell id="o53D91jLIQOZ8q07HQFA-13" value="" style="ellipse;whiteSpace=wrap;html=1;fillColor=#7D6E83;strokeColor=none;rotation=-180;" parent="o53D91jLIQOZ8q07HQFA-18" vertex="1">
          <mxGeometry x="43.63636363636363" y="186.66666666666666" width="87.27272727272727" height="80" as="geometry" />
        </mxCell>
        <mxCell id="o53D91jLIQOZ8q07HQFA-14" value="" style="ellipse;whiteSpace=wrap;html=1;fillColor=#7D6E83;strokeColor=none;rotation=-180;" parent="o53D91jLIQOZ8q07HQFA-18" vertex="1">
          <mxGeometry x="58.181818181818194" y="120" width="87.27272727272727" height="80" as="geometry" />
        </mxCell>
        <mxCell id="o53D91jLIQOZ8q07HQFA-15" value="" style="ellipse;whiteSpace=wrap;html=1;fillColor=#7D6E83;strokeColor=none;rotation=-180;" parent="o53D91jLIQOZ8q07HQFA-18" vertex="1">
          <mxGeometry x="43.63636363636363" y="53.333333333333336" width="87.27272727272727" height="80" as="geometry" />
        </mxCell>
        <mxCell id="o53D91jLIQOZ8q07HQFA-16" value="" style="ellipse;whiteSpace=wrap;html=1;fillColor=#7D6E83;strokeColor=none;rotation=-180;" parent="o53D91jLIQOZ8q07HQFA-18" vertex="1">
          <mxGeometry width="87.27272727272727" height="80" as="geometry" />
        </mxCell>
        <mxCell id="o53D91jLIQOZ8q07HQFA-17" value="" style="rounded=0;whiteSpace=wrap;html=1;strokeColor=none;fillColor=#7D6E83;rotation=-180;" parent="o53D91jLIQOZ8q07HQFA-18" vertex="1">
          <mxGeometry y="40" width="72.72727272727275" height="240" as="geometry" />
        </mxCell>
        <mxCell id="qqk2YeIDn_j3kmsEYsQR-17" value="" style="ellipse;whiteSpace=wrap;html=1;strokeColor=none;fillColor=#F8EDE3;" parent="o53D91jLIQOZ8q07HQFA-18" vertex="1">
          <mxGeometry x="27.27454545454549" y="210" width="60" height="60" as="geometry" />
        </mxCell>
        <mxCell id="qqk2YeIDn_j3kmsEYsQR-15" value="" style="ellipse;whiteSpace=wrap;html=1;strokeColor=none;fillColor=#F8EDE3;" parent="o53D91jLIQOZ8q07HQFA-18" vertex="1">
          <mxGeometry x="27.274545454545496" y="53.33000000000004" width="60" height="60" as="geometry" />
        </mxCell>
        <mxCell id="qqk2YeIDn_j3kmsEYsQR-8" style="edgeStyle=orthogonalEdgeStyle;rounded=0;orthogonalLoop=1;jettySize=auto;html=1;entryX=0;entryY=0.5;entryDx=0;entryDy=0;exitX=1;exitY=0.25;exitDx=0;exitDy=0;strokeWidth=12;endArrow=none;endFill=0;curved=1;strokeColor=#000000;" parent="1" source="qqk2YeIDn_j3kmsEYsQR-1" target="qqk2YeIDn_j3kmsEYsQR-2" edge="1">
          <mxGeometry relative="1" as="geometry" />
        </mxCell>
        <mxCell id="qqk2YeIDn_j3kmsEYsQR-9" style="edgeStyle=orthogonalEdgeStyle;rounded=0;orthogonalLoop=1;jettySize=auto;html=1;exitX=1;exitY=0.75;exitDx=0;exitDy=0;entryX=0;entryY=0.5;entryDx=0;entryDy=0;strokeWidth=12;endArrow=none;endFill=0;curved=1;strokeColor=#000000;" parent="1" source="qqk2YeIDn_j3kmsEYsQR-1" target="qqk2YeIDn_j3kmsEYsQR-3" edge="1">
          <mxGeometry relative="1" as="geometry" />
        </mxCell>
        <mxCell id="qqk2YeIDn_j3kmsEYsQR-10" style="edgeStyle=orthogonalEdgeStyle;rounded=0;orthogonalLoop=1;jettySize=auto;html=1;exitX=0;exitY=0.75;exitDx=0;exitDy=0;entryX=1;entryY=0.5;entryDx=0;entryDy=0;strokeWidth=12;endArrow=none;endFill=0;curved=1;strokeColor=#000000;" parent="1" source="qqk2YeIDn_j3kmsEYsQR-1" target="qqk2YeIDn_j3kmsEYsQR-4" edge="1">
          <mxGeometry relative="1" as="geometry" />
        </mxCell>
        <mxCell id="qqk2YeIDn_j3kmsEYsQR-11" style="edgeStyle=orthogonalEdgeStyle;rounded=0;orthogonalLoop=1;jettySize=auto;html=1;exitX=0;exitY=0.25;exitDx=0;exitDy=0;entryX=1;entryY=0.5;entryDx=0;entryDy=0;strokeWidth=12;endArrow=none;endFill=0;curved=1;strokeColor=#000000;" parent="1" source="qqk2YeIDn_j3kmsEYsQR-1" target="qqk2YeIDn_j3kmsEYsQR-5" edge="1">
          <mxGeometry relative="1" as="geometry" />
        </mxCell>
        <mxCell id="qqk2YeIDn_j3kmsEYsQR-1" value="" style="rounded=1;whiteSpace=wrap;html=1;strokeWidth=12;fillColor=#E26D5C;strokeColor=#000000;" parent="1" vertex="1">
          <mxGeometry x="360" y="360" width="120" height="80" as="geometry" />
        </mxCell>
        <mxCell id="qqk2YeIDn_j3kmsEYsQR-2" value="" style="rounded=1;whiteSpace=wrap;html=1;strokeWidth=8;fillColor=#EBEDE9;strokeColor=#000000;" parent="1" vertex="1">
          <mxGeometry x="560" y="280" width="120" height="80" as="geometry" />
        </mxCell>
        <mxCell id="qqk2YeIDn_j3kmsEYsQR-3" value="" style="rounded=1;whiteSpace=wrap;html=1;strokeWidth=8;fillColor=#EBEDE9;strokeColor=#000000;" parent="1" vertex="1">
          <mxGeometry x="560" y="440" width="120" height="80" as="geometry" />
        </mxCell>
        <mxCell id="qqk2YeIDn_j3kmsEYsQR-4" value="" style="rounded=1;whiteSpace=wrap;html=1;strokeWidth=8;fillColor=#EBEDE9;strokeColor=#000000;" parent="1" vertex="1">
          <mxGeometry x="160" y="440" width="120" height="80" as="geometry" />
        </mxCell>
        <mxCell id="qqk2YeIDn_j3kmsEYsQR-5" value="" style="rounded=1;whiteSpace=wrap;html=1;strokeWidth=8;fillColor=#EBEDE9;strokeColor=#000000;" parent="1" vertex="1">
          <mxGeometry x="160" y="280" width="120" height="80" as="geometry" />
        </mxCell>
        <mxCell id="qqk2YeIDn_j3kmsEYsQR-12" value="" style="ellipse;whiteSpace=wrap;html=1;fillColor=#7D6E83;strokeColor=none;" parent="1" vertex="1">
          <mxGeometry x="390" y="910" width="100" height="100" as="geometry" />
        </mxCell>
        <mxCell id="qqk2YeIDn_j3kmsEYsQR-20" value="" style="endArrow=none;html=1;rounded=0;strokeWidth=15;exitX=0.333;exitY=0.667;exitDx=0;exitDy=0;exitPerimeter=0;strokeColor=#F8EDE3;" parent="1" source="qqk2YeIDn_j3kmsEYsQR-16" edge="1">
          <mxGeometry width="50" height="50" relative="1" as="geometry">
            <mxPoint x="320" y="1080" as="sourcePoint" />
            <mxPoint x="512" y="890" as="targetPoint" />
            <Array as="points" />
          </mxGeometry>
        </mxCell>
        <mxCell id="qqk2YeIDn_j3kmsEYsQR-16" value="" style="ellipse;whiteSpace=wrap;html=1;strokeColor=#F8EDE3;fillColor=#F8EDE3;" parent="1" vertex="1">
          <mxGeometry x="332.86" y="1010" width="60" height="60" as="geometry" />
        </mxCell>
        <mxCell id="o53D91jLIQOZ8q07HQFA-2" value="" style="endArrow=none;html=1;rounded=0;strokeWidth=15;exitX=0.5;exitY=0.5;exitDx=0;exitDy=0;exitPerimeter=0;strokeColor=#FFFFFF;" parent="1" source="qqk2YeIDn_j3kmsEYsQR-14" edge="1">
          <mxGeometry width="50" height="50" relative="1" as="geometry">
            <mxPoint x="540" y="1060" as="sourcePoint" />
            <mxPoint x="350" y="870" as="targetPoint" />
          </mxGeometry>
        </mxCell>
        <mxCell id="o53D91jLIQOZ8q07HQFA-4" value="" style="rounded=1;whiteSpace=wrap;html=1;fillColor=#F8EDE3;strokeColor=none;arcSize=20;" parent="1" vertex="1">
          <mxGeometry x="425" y="770" width="30" height="340" as="geometry" />
        </mxCell>
        <mxCell id="o53D91jLIQOZ8q07HQFA-20" value="" style="group;rotation=90;" parent="1" vertex="1" connectable="0">
          <mxGeometry x="350" y="1300" width="175" height="200" as="geometry" />
        </mxCell>
        <mxCell id="o53D91jLIQOZ8q07HQFA-21" value="" style="ellipse;whiteSpace=wrap;html=1;fillColor=#003459;strokeColor=none;rotation=90;" parent="o53D91jLIQOZ8q07HQFA-20" vertex="1">
          <mxGeometry x="139" y="43" width="47.727272727272734" height="50" as="geometry" />
        </mxCell>
        <mxCell id="o53D91jLIQOZ8q07HQFA-22" value="" style="ellipse;whiteSpace=wrap;html=1;fillColor=#003459;strokeColor=none;rotation=90;" parent="o53D91jLIQOZ8q07HQFA-20" vertex="1">
          <mxGeometry x="105" y="19" width="47.727272727272734" height="50" as="geometry" />
        </mxCell>
        <mxCell id="o53D91jLIQOZ8q07HQFA-23" value="" style="ellipse;whiteSpace=wrap;html=1;fillColor=#003459;strokeColor=none;rotation=90;" parent="o53D91jLIQOZ8q07HQFA-20" vertex="1">
          <mxGeometry x="64" y="11" width="47.727272727272734" height="50" as="geometry" />
        </mxCell>
        <mxCell id="o53D91jLIQOZ8q07HQFA-24" value="" style="ellipse;whiteSpace=wrap;html=1;fillColor=#003459;strokeColor=none;rotation=90;" parent="o53D91jLIQOZ8q07HQFA-20" vertex="1">
          <mxGeometry x="22" y="19" width="47.727272727272734" height="50" as="geometry" />
        </mxCell>
        <mxCell id="o53D91jLIQOZ8q07HQFA-25" value="" style="ellipse;whiteSpace=wrap;html=1;fillColor=#003459;strokeColor=none;rotation=90;" parent="o53D91jLIQOZ8q07HQFA-20" vertex="1">
          <mxGeometry x="-11" y="43" width="47.727272727272734" height="50" as="geometry" />
        </mxCell>
        <mxCell id="o53D91jLIQOZ8q07HQFA-26" value="" style="rounded=0;whiteSpace=wrap;html=1;strokeColor=none;fillColor=#003459;rotation=90;" parent="o53D91jLIQOZ8q07HQFA-20" vertex="1">
          <mxGeometry x="68" y="-3" width="39.77272727272728" height="150" as="geometry" />
        </mxCell>
        <mxCell id="o53D91jLIQOZ8q07HQFA-27" value="" style="group;rotation=-90;" parent="o53D91jLIQOZ8q07HQFA-20" vertex="1" connectable="0">
          <mxGeometry x="48" y="48" width="79.54545454545456" height="200" as="geometry" />
        </mxCell>
        <mxCell id="o53D91jLIQOZ8q07HQFA-28" value="" style="ellipse;whiteSpace=wrap;html=1;fillColor=#003459;strokeColor=none;rotation=-90;" parent="o53D91jLIQOZ8q07HQFA-27" vertex="1">
          <mxGeometry x="-59" y="59" width="47.727272727272734" height="50" as="geometry" />
        </mxCell>
        <mxCell id="o53D91jLIQOZ8q07HQFA-29" value="" style="ellipse;whiteSpace=wrap;html=1;fillColor=#003459;strokeColor=none;rotation=-90;" parent="o53D91jLIQOZ8q07HQFA-27" vertex="1">
          <mxGeometry x="-26" y="83" width="47.727272727272734" height="50" as="geometry" />
        </mxCell>
        <mxCell id="o53D91jLIQOZ8q07HQFA-30" value="" style="ellipse;whiteSpace=wrap;html=1;fillColor=#003459;strokeColor=none;rotation=-90;" parent="o53D91jLIQOZ8q07HQFA-27" vertex="1">
          <mxGeometry x="16" y="91" width="47.727272727272734" height="50" as="geometry" />
        </mxCell>
        <mxCell id="o53D91jLIQOZ8q07HQFA-31" value="" style="ellipse;whiteSpace=wrap;html=1;fillColor=#003459;strokeColor=none;rotation=-90;" parent="o53D91jLIQOZ8q07HQFA-27" vertex="1">
          <mxGeometry x="58" y="83" width="47.727272727272734" height="50" as="geometry" />
        </mxCell>
        <mxCell id="o53D91jLIQOZ8q07HQFA-32" value="" style="ellipse;whiteSpace=wrap;html=1;fillColor=#003459;strokeColor=none;rotation=-90;" parent="o53D91jLIQOZ8q07HQFA-27" vertex="1">
          <mxGeometry x="91" y="59" width="47.727272727272734" height="50" as="geometry" />
        </mxCell>
        <mxCell id="o53D91jLIQOZ8q07HQFA-33" value="" style="rounded=0;whiteSpace=wrap;html=1;strokeColor=none;fillColor=#003459;rotation=-90;" parent="o53D91jLIQOZ8q07HQFA-27" vertex="1">
          <mxGeometry x="20" y="5" width="39.77272727272728" height="150" as="geometry" />
        </mxCell>
        <mxCell id="8WUyxdrXLbyLRGO1gfWQ-1" value="" style="rounded=0;whiteSpace=wrap;html=1;fillColor=#F8EDE3;strokeColor=none;arcSize=0;" parent="1" vertex="1">
          <mxGeometry x="720" y="760" width="400" height="400" as="geometry" />
        </mxCell>
        <mxCell id="8WUyxdrXLbyLRGO1gfWQ-2" value="" style="ellipse;whiteSpace=wrap;html=1;fillColor=#7D6E83;strokeColor=none;" parent="1" vertex="1">
          <mxGeometry x="870" y="910" width="100" height="100" as="geometry" />
        </mxCell>
        <mxCell id="8WUyxdrXLbyLRGO1gfWQ-3" value="" style="ellipse;whiteSpace=wrap;html=1;fillColor=#7D6E83;strokeColor=none;" parent="1" vertex="1">
          <mxGeometry x="780" y="820" width="60" height="60" as="geometry" />
        </mxCell>
        <mxCell id="8WUyxdrXLbyLRGO1gfWQ-4" value="" style="ellipse;whiteSpace=wrap;html=1;fillColor=#7D6E83;strokeColor=none;" parent="1" vertex="1">
          <mxGeometry x="1000" y="820" width="60" height="60" as="geometry" />
        </mxCell>
        <mxCell id="8WUyxdrXLbyLRGO1gfWQ-5" value="" style="ellipse;whiteSpace=wrap;html=1;fillColor=#7D6E83;strokeColor=none;" parent="1" vertex="1">
          <mxGeometry x="1000" y="1040" width="60" height="60" as="geometry" />
        </mxCell>
        <mxCell id="8WUyxdrXLbyLRGO1gfWQ-6" value="" style="endArrow=none;html=1;rounded=0;strokeWidth=15;strokeColor=#7D6E83;exitX=0.333;exitY=0.667;exitDx=0;exitDy=0;exitPerimeter=0;" parent="1" source="8WUyxdrXLbyLRGO1gfWQ-7" edge="1">
          <mxGeometry width="50" height="50" relative="1" as="geometry">
            <mxPoint x="800" y="1080" as="sourcePoint" />
            <mxPoint x="1038.7867965644036" y="841.2132034355964" as="targetPoint" />
          </mxGeometry>
        </mxCell>
        <mxCell id="8WUyxdrXLbyLRGO1gfWQ-7" value="" style="ellipse;whiteSpace=wrap;html=1;fillColor=#7D6E83;strokeColor=none;" parent="1" vertex="1">
          <mxGeometry x="780" y="1040" width="60" height="60" as="geometry" />
        </mxCell>
        <mxCell id="8WUyxdrXLbyLRGO1gfWQ-8" value="" style="endArrow=none;html=1;rounded=0;strokeWidth=15;strokeColor=#7D6E83;entryX=0.5;entryY=0.5;entryDx=0;entryDy=0;entryPerimeter=0;exitX=0.5;exitY=0.5;exitDx=0;exitDy=0;exitPerimeter=0;" parent="1" source="8WUyxdrXLbyLRGO1gfWQ-5" target="8WUyxdrXLbyLRGO1gfWQ-3" edge="1">
          <mxGeometry width="50" height="50" relative="1" as="geometry">
            <mxPoint x="1020" y="1060" as="sourcePoint" />
            <mxPoint x="864" y="904" as="targetPoint" />
          </mxGeometry>
        </mxCell>
        <mxCell id="8WUyxdrXLbyLRGO1gfWQ-9" value="" style="rounded=1;whiteSpace=wrap;html=1;fillColor=#F8EDE3;strokeColor=none;arcSize=20;" parent="1" vertex="1">
          <mxGeometry x="900" y="770" width="40" height="340" as="geometry" />
        </mxCell>
        <mxCell id="8WUyxdrXLbyLRGO1gfWQ-10" value="" style="group" parent="1" vertex="1" connectable="0">
          <mxGeometry x="830" y="870" width="180" height="180" as="geometry" />
        </mxCell>
        <mxCell id="8WUyxdrXLbyLRGO1gfWQ-11" value="" style="ellipse;whiteSpace=wrap;html=1;fillColor=#7D6E83;strokeColor=none;" parent="8WUyxdrXLbyLRGO1gfWQ-10" vertex="1">
          <mxGeometry x="32.727272727272734" width="49.09090909090909" height="45" as="geometry" />
        </mxCell>
        <mxCell id="8WUyxdrXLbyLRGO1gfWQ-12" value="" style="ellipse;whiteSpace=wrap;html=1;fillColor=#7D6E83;strokeColor=none;" parent="8WUyxdrXLbyLRGO1gfWQ-10" vertex="1">
          <mxGeometry x="8.181818181818183" y="30.000000000000004" width="49.09090909090909" height="45" as="geometry" />
        </mxCell>
        <mxCell id="8WUyxdrXLbyLRGO1gfWQ-13" value="" style="ellipse;whiteSpace=wrap;html=1;fillColor=#7D6E83;strokeColor=none;" parent="8WUyxdrXLbyLRGO1gfWQ-10" vertex="1">
          <mxGeometry y="67.5" width="49.09090909090909" height="45" as="geometry" />
        </mxCell>
        <mxCell id="8WUyxdrXLbyLRGO1gfWQ-14" value="" style="ellipse;whiteSpace=wrap;html=1;fillColor=#7D6E83;strokeColor=none;" parent="8WUyxdrXLbyLRGO1gfWQ-10" vertex="1">
          <mxGeometry x="8.181818181818183" y="105" width="49.09090909090909" height="45" as="geometry" />
        </mxCell>
        <mxCell id="8WUyxdrXLbyLRGO1gfWQ-15" value="" style="ellipse;whiteSpace=wrap;html=1;fillColor=#7D6E83;strokeColor=none;" parent="8WUyxdrXLbyLRGO1gfWQ-10" vertex="1">
          <mxGeometry x="32.727272727272734" y="135" width="49.09090909090909" height="45" as="geometry" />
        </mxCell>
        <mxCell id="8WUyxdrXLbyLRGO1gfWQ-16" value="" style="rounded=0;whiteSpace=wrap;html=1;strokeColor=none;fillColor=#7D6E83;" parent="8WUyxdrXLbyLRGO1gfWQ-10" vertex="1">
          <mxGeometry x="40.90909090909092" y="22.5" width="40.90909090909092" height="135" as="geometry" />
        </mxCell>
        <mxCell id="8WUyxdrXLbyLRGO1gfWQ-17" value="" style="group;rotation=-180;" parent="8WUyxdrXLbyLRGO1gfWQ-10" vertex="1" connectable="0">
          <mxGeometry x="98.18181818181819" width="81.81818181818184" height="180" as="geometry" />
        </mxCell>
        <mxCell id="8WUyxdrXLbyLRGO1gfWQ-18" value="" style="ellipse;whiteSpace=wrap;html=1;fillColor=#7D6E83;strokeColor=none;rotation=-180;" parent="8WUyxdrXLbyLRGO1gfWQ-17" vertex="1">
          <mxGeometry y="135" width="49.09090909090909" height="45" as="geometry" />
        </mxCell>
        <mxCell id="8WUyxdrXLbyLRGO1gfWQ-19" value="" style="ellipse;whiteSpace=wrap;html=1;fillColor=#7D6E83;strokeColor=none;rotation=-180;" parent="8WUyxdrXLbyLRGO1gfWQ-17" vertex="1">
          <mxGeometry x="24.545454545454547" y="105" width="49.09090909090909" height="45" as="geometry" />
        </mxCell>
        <mxCell id="8WUyxdrXLbyLRGO1gfWQ-20" value="" style="ellipse;whiteSpace=wrap;html=1;fillColor=#7D6E83;strokeColor=none;rotation=-180;" parent="8WUyxdrXLbyLRGO1gfWQ-17" vertex="1">
          <mxGeometry x="32.727272727272734" y="67.5" width="49.09090909090909" height="45" as="geometry" />
        </mxCell>
        <mxCell id="8WUyxdrXLbyLRGO1gfWQ-21" value="" style="ellipse;whiteSpace=wrap;html=1;fillColor=#7D6E83;strokeColor=none;rotation=-180;" parent="8WUyxdrXLbyLRGO1gfWQ-17" vertex="1">
          <mxGeometry x="24.545454545454547" y="30.000000000000004" width="49.09090909090909" height="45" as="geometry" />
        </mxCell>
        <mxCell id="8WUyxdrXLbyLRGO1gfWQ-22" value="" style="ellipse;whiteSpace=wrap;html=1;fillColor=#7D6E83;strokeColor=none;rotation=-180;" parent="8WUyxdrXLbyLRGO1gfWQ-17" vertex="1">
          <mxGeometry width="49.09090909090909" height="45" as="geometry" />
        </mxCell>
        <mxCell id="8WUyxdrXLbyLRGO1gfWQ-23" value="" style="rounded=0;whiteSpace=wrap;html=1;strokeColor=none;fillColor=#7D6E83;rotation=-180;" parent="8WUyxdrXLbyLRGO1gfWQ-17" vertex="1">
          <mxGeometry y="22.5" width="40.90909090909092" height="135" as="geometry" />
        </mxCell>
        <mxCell id="N-9yIsKkOp0_mu_NHLMs-1" value="" style="endArrow=none;html=1;rounded=0;strokeWidth=15;exitX=0.5;exitY=0.5;exitDx=0;exitDy=0;exitPerimeter=0;strokeColor=#F8EDE3;entryX=0.5;entryY=0.5;entryDx=0;entryDy=0;entryPerimeter=0;" parent="1" source="qqk2YeIDn_j3kmsEYsQR-17" target="qqk2YeIDn_j3kmsEYsQR-14" edge="1">
          <mxGeometry width="50" height="50" relative="1" as="geometry">
            <mxPoint x="550" y="1070" as="sourcePoint" />
            <mxPoint x="350" y="870" as="targetPoint" />
          </mxGeometry>
        </mxCell>
        <mxCell id="qqk2YeIDn_j3kmsEYsQR-14" value="" style="ellipse;whiteSpace=wrap;html=1;strokeColor=#F8EDE3;fillColor=#F8EDE3;" parent="1" vertex="1">
          <mxGeometry x="332.86" y="855" width="60" height="60" as="geometry" />
        </mxCell>
        <mxCell id="N-9yIsKkOp0_mu_NHLMs-2" value="" style="rounded=1;whiteSpace=wrap;html=1;fillColor=#F8EDE3;strokeColor=none;arcSize=10;" parent="1" vertex="1">
          <mxGeometry x="240" y="1600" width="400" height="400" as="geometry" />
        </mxCell>
        <mxCell id="N-9yIsKkOp0_mu_NHLMs-3" value="" style="group" parent="1" vertex="1" connectable="0">
          <mxGeometry x="280" y="1640" width="320" height="320" as="geometry" />
        </mxCell>
        <mxCell id="N-9yIsKkOp0_mu_NHLMs-4" value="" style="ellipse;whiteSpace=wrap;html=1;fillColor=#7D6E83;strokeColor=none;" parent="N-9yIsKkOp0_mu_NHLMs-3" vertex="1">
          <mxGeometry x="65.18181818181819" width="87.27272727272727" height="80" as="geometry" />
        </mxCell>
        <mxCell id="N-9yIsKkOp0_mu_NHLMs-5" value="" style="ellipse;whiteSpace=wrap;html=1;fillColor=#7D6E83;strokeColor=none;" parent="N-9yIsKkOp0_mu_NHLMs-3" vertex="1">
          <mxGeometry x="21.545454545454547" y="53.333333333333336" width="87.27272727272727" height="80" as="geometry" />
        </mxCell>
        <mxCell id="N-9yIsKkOp0_mu_NHLMs-6" value="" style="ellipse;whiteSpace=wrap;html=1;fillColor=#7D6E83;strokeColor=none;" parent="N-9yIsKkOp0_mu_NHLMs-3" vertex="1">
          <mxGeometry x="7" y="120" width="87.27272727272727" height="80" as="geometry" />
        </mxCell>
        <mxCell id="N-9yIsKkOp0_mu_NHLMs-7" value="" style="ellipse;whiteSpace=wrap;html=1;fillColor=#7D6E83;strokeColor=none;" parent="N-9yIsKkOp0_mu_NHLMs-3" vertex="1">
          <mxGeometry x="21.545454545454547" y="186.66666666666666" width="87.27272727272727" height="80" as="geometry" />
        </mxCell>
        <mxCell id="N-9yIsKkOp0_mu_NHLMs-8" value="" style="ellipse;whiteSpace=wrap;html=1;fillColor=#7D6E83;strokeColor=none;" parent="N-9yIsKkOp0_mu_NHLMs-3" vertex="1">
          <mxGeometry x="65.18181818181819" y="240" width="87.27272727272727" height="80" as="geometry" />
        </mxCell>
        <mxCell id="N-9yIsKkOp0_mu_NHLMs-9" value="" style="rounded=0;whiteSpace=wrap;html=1;strokeColor=none;fillColor=#7D6E83;" parent="N-9yIsKkOp0_mu_NHLMs-3" vertex="1">
          <mxGeometry x="79.72727272727275" y="40" width="72.72727272727275" height="240" as="geometry" />
        </mxCell>
        <mxCell id="N-9yIsKkOp0_mu_NHLMs-10" value="" style="group;rotation=-180;" parent="N-9yIsKkOp0_mu_NHLMs-3" vertex="1" connectable="0">
          <mxGeometry x="174.54545454545453" width="145.4545454545455" height="320" as="geometry" />
        </mxCell>
        <mxCell id="N-9yIsKkOp0_mu_NHLMs-11" value="" style="ellipse;whiteSpace=wrap;html=1;fillColor=#7D6E83;strokeColor=none;rotation=-180;" parent="N-9yIsKkOp0_mu_NHLMs-10" vertex="1">
          <mxGeometry x="-7" y="240" width="87.27272727272727" height="80" as="geometry" />
        </mxCell>
        <mxCell id="N-9yIsKkOp0_mu_NHLMs-12" value="" style="ellipse;whiteSpace=wrap;html=1;fillColor=#7D6E83;strokeColor=none;rotation=-180;" parent="N-9yIsKkOp0_mu_NHLMs-10" vertex="1">
          <mxGeometry x="36.63636363636363" y="186.66666666666666" width="87.27272727272727" height="80" as="geometry" />
        </mxCell>
        <mxCell id="N-9yIsKkOp0_mu_NHLMs-13" value="" style="ellipse;whiteSpace=wrap;html=1;fillColor=#7D6E83;strokeColor=none;rotation=-180;" parent="N-9yIsKkOp0_mu_NHLMs-10" vertex="1">
          <mxGeometry x="51.181818181818194" y="120" width="87.27272727272727" height="80" as="geometry" />
        </mxCell>
        <mxCell id="N-9yIsKkOp0_mu_NHLMs-14" value="" style="ellipse;whiteSpace=wrap;html=1;fillColor=#7D6E83;strokeColor=none;rotation=-180;" parent="N-9yIsKkOp0_mu_NHLMs-10" vertex="1">
          <mxGeometry x="36.63636363636363" y="53.333333333333336" width="87.27272727272727" height="80" as="geometry" />
        </mxCell>
        <mxCell id="N-9yIsKkOp0_mu_NHLMs-15" value="" style="ellipse;whiteSpace=wrap;html=1;fillColor=#7D6E83;strokeColor=none;rotation=-180;" parent="N-9yIsKkOp0_mu_NHLMs-10" vertex="1">
          <mxGeometry x="-7" width="87.27272727272727" height="80" as="geometry" />
        </mxCell>
        <mxCell id="N-9yIsKkOp0_mu_NHLMs-16" value="" style="rounded=0;whiteSpace=wrap;html=1;strokeColor=none;fillColor=#7D6E83;rotation=-180;" parent="N-9yIsKkOp0_mu_NHLMs-10" vertex="1">
          <mxGeometry x="-7" y="40" width="72.72727272727275" height="240" as="geometry" />
        </mxCell>
        <mxCell id="N-9yIsKkOp0_mu_NHLMs-17" value="" style="ellipse;whiteSpace=wrap;html=1;strokeColor=none;fillColor=#F8EDE3;" parent="N-9yIsKkOp0_mu_NHLMs-10" vertex="1">
          <mxGeometry x="24.27454545454549" y="206.67" width="60" height="60" as="geometry" />
        </mxCell>
        <mxCell id="N-9yIsKkOp0_mu_NHLMs-18" value="" style="ellipse;whiteSpace=wrap;html=1;strokeColor=none;fillColor=#F8EDE3;" parent="N-9yIsKkOp0_mu_NHLMs-10" vertex="1">
          <mxGeometry x="24.274545454545496" y="53.33000000000004" width="60" height="60" as="geometry" />
        </mxCell>
        <mxCell id="N-9yIsKkOp0_mu_NHLMs-19" value="" style="ellipse;whiteSpace=wrap;html=1;fillColor=#7D6E83;strokeColor=none;" parent="1" vertex="1">
          <mxGeometry x="390" y="1750" width="100" height="100" as="geometry" />
        </mxCell>
        <mxCell id="N-9yIsKkOp0_mu_NHLMs-20" value="" style="endArrow=none;html=1;rounded=0;strokeWidth=15;strokeColor=#F8EDE3;" parent="1" edge="1">
          <mxGeometry width="50" height="50" relative="1" as="geometry">
            <mxPoint x="379" y="1866" as="sourcePoint" />
            <mxPoint x="502" y="1730" as="targetPoint" />
            <Array as="points" />
          </mxGeometry>
        </mxCell>
        <mxCell id="N-9yIsKkOp0_mu_NHLMs-21" value="" style="ellipse;whiteSpace=wrap;html=1;strokeColor=#F8EDE3;fillColor=#F8EDE3;" parent="1" vertex="1">
          <mxGeometry x="341" y="1846" width="60" height="60" as="geometry" />
        </mxCell>
        <mxCell id="N-9yIsKkOp0_mu_NHLMs-22" value="" style="endArrow=none;html=1;rounded=0;strokeWidth=15;exitX=0.5;exitY=0.5;exitDx=0;exitDy=0;exitPerimeter=0;strokeColor=#FFFFFF;" parent="1" edge="1">
          <mxGeometry width="50" height="50" relative="1" as="geometry">
            <mxPoint x="378" y="1724" as="sourcePoint" />
            <mxPoint x="357" y="1710" as="targetPoint" />
          </mxGeometry>
        </mxCell>
        <mxCell id="N-9yIsKkOp0_mu_NHLMs-24" value="" style="endArrow=none;html=1;rounded=0;strokeWidth=15;strokeColor=#F8EDE3;" parent="1" edge="1">
          <mxGeometry width="50" height="50" relative="1" as="geometry">
            <mxPoint x="506" y="1873" as="sourcePoint" />
            <mxPoint x="378" y="1732" as="targetPoint" />
          </mxGeometry>
        </mxCell>
        <mxCell id="N-9yIsKkOp0_mu_NHLMs-25" value="" style="ellipse;whiteSpace=wrap;html=1;strokeColor=#F8EDE3;fillColor=#F8EDE3;" parent="1" vertex="1">
          <mxGeometry x="341" y="1694" width="60" height="60" as="geometry" />
        </mxCell>
        <mxCell id="N-9yIsKkOp0_mu_NHLMs-50" value="" style="endArrow=none;html=1;rounded=0;strokeWidth=16;strokeColor=#F8EDE3;" parent="1" edge="1">
          <mxGeometry width="50" height="50" relative="1" as="geometry">
            <mxPoint x="440" y="1980" as="sourcePoint" />
            <mxPoint x="440" y="1630" as="targetPoint" />
            <Array as="points" />
          </mxGeometry>
        </mxCell>
        <mxCell id="N-9yIsKkOp0_mu_NHLMs-51" value="" style="rounded=0;whiteSpace=wrap;html=1;fillColor=#F8EDE3;strokeColor=none;arcSize=10;" parent="1" vertex="1">
          <mxGeometry x="760" y="1600" width="400" height="400" as="geometry" />
        </mxCell>
        <mxCell id="N-9yIsKkOp0_mu_NHLMs-52" value="" style="group" parent="1" vertex="1" connectable="0">
          <mxGeometry x="800" y="1640" width="320" height="320" as="geometry" />
        </mxCell>
        <mxCell id="N-9yIsKkOp0_mu_NHLMs-53" value="" style="ellipse;whiteSpace=wrap;html=1;fillColor=#7D6E83;strokeColor=none;" parent="N-9yIsKkOp0_mu_NHLMs-52" vertex="1">
          <mxGeometry x="65.18181818181819" width="87.27272727272727" height="80" as="geometry" />
        </mxCell>
        <mxCell id="N-9yIsKkOp0_mu_NHLMs-54" value="" style="ellipse;whiteSpace=wrap;html=1;fillColor=#7D6E83;strokeColor=none;" parent="N-9yIsKkOp0_mu_NHLMs-52" vertex="1">
          <mxGeometry x="21.545454545454547" y="53.333333333333336" width="87.27272727272727" height="80" as="geometry" />
        </mxCell>
        <mxCell id="N-9yIsKkOp0_mu_NHLMs-55" value="" style="ellipse;whiteSpace=wrap;html=1;fillColor=#7D6E83;strokeColor=none;" parent="N-9yIsKkOp0_mu_NHLMs-52" vertex="1">
          <mxGeometry x="7" y="120" width="87.27272727272727" height="80" as="geometry" />
        </mxCell>
        <mxCell id="N-9yIsKkOp0_mu_NHLMs-56" value="" style="ellipse;whiteSpace=wrap;html=1;fillColor=#7D6E83;strokeColor=none;" parent="N-9yIsKkOp0_mu_NHLMs-52" vertex="1">
          <mxGeometry x="21.545454545454547" y="186.66666666666666" width="87.27272727272727" height="80" as="geometry" />
        </mxCell>
        <mxCell id="N-9yIsKkOp0_mu_NHLMs-57" value="" style="ellipse;whiteSpace=wrap;html=1;fillColor=#7D6E83;strokeColor=none;" parent="N-9yIsKkOp0_mu_NHLMs-52" vertex="1">
          <mxGeometry x="65.18181818181819" y="240" width="87.27272727272727" height="80" as="geometry" />
        </mxCell>
        <mxCell id="N-9yIsKkOp0_mu_NHLMs-58" value="" style="rounded=0;whiteSpace=wrap;html=1;strokeColor=none;fillColor=#7D6E83;" parent="N-9yIsKkOp0_mu_NHLMs-52" vertex="1">
          <mxGeometry x="79.72727272727275" y="40" width="72.72727272727275" height="240" as="geometry" />
        </mxCell>
        <mxCell id="N-9yIsKkOp0_mu_NHLMs-59" value="" style="group;rotation=-180;" parent="N-9yIsKkOp0_mu_NHLMs-52" vertex="1" connectable="0">
          <mxGeometry x="174.54545454545453" width="145.4545454545455" height="320" as="geometry" />
        </mxCell>
        <mxCell id="N-9yIsKkOp0_mu_NHLMs-60" value="" style="ellipse;whiteSpace=wrap;html=1;fillColor=#7D6E83;strokeColor=none;rotation=-180;" parent="N-9yIsKkOp0_mu_NHLMs-59" vertex="1">
          <mxGeometry x="-7" y="240" width="87.27272727272727" height="80" as="geometry" />
        </mxCell>
        <mxCell id="N-9yIsKkOp0_mu_NHLMs-61" value="" style="ellipse;whiteSpace=wrap;html=1;fillColor=#7D6E83;strokeColor=none;rotation=-180;" parent="N-9yIsKkOp0_mu_NHLMs-59" vertex="1">
          <mxGeometry x="36.63636363636363" y="186.66666666666666" width="87.27272727272727" height="80" as="geometry" />
        </mxCell>
        <mxCell id="N-9yIsKkOp0_mu_NHLMs-62" value="" style="ellipse;whiteSpace=wrap;html=1;fillColor=#7D6E83;strokeColor=none;rotation=-180;" parent="N-9yIsKkOp0_mu_NHLMs-59" vertex="1">
          <mxGeometry x="51.181818181818194" y="120" width="87.27272727272727" height="80" as="geometry" />
        </mxCell>
        <mxCell id="N-9yIsKkOp0_mu_NHLMs-63" value="" style="ellipse;whiteSpace=wrap;html=1;fillColor=#7D6E83;strokeColor=none;rotation=-180;" parent="N-9yIsKkOp0_mu_NHLMs-59" vertex="1">
          <mxGeometry x="36.63636363636363" y="53.333333333333336" width="87.27272727272727" height="80" as="geometry" />
        </mxCell>
        <mxCell id="N-9yIsKkOp0_mu_NHLMs-64" value="" style="ellipse;whiteSpace=wrap;html=1;fillColor=#7D6E83;strokeColor=none;rotation=-180;" parent="N-9yIsKkOp0_mu_NHLMs-59" vertex="1">
          <mxGeometry x="-7" width="87.27272727272727" height="80" as="geometry" />
        </mxCell>
        <mxCell id="N-9yIsKkOp0_mu_NHLMs-65" value="" style="rounded=0;whiteSpace=wrap;html=1;strokeColor=none;fillColor=#7D6E83;rotation=-180;" parent="N-9yIsKkOp0_mu_NHLMs-59" vertex="1">
          <mxGeometry x="-7" y="40" width="72.72727272727275" height="240" as="geometry" />
        </mxCell>
        <mxCell id="N-9yIsKkOp0_mu_NHLMs-66" value="" style="ellipse;whiteSpace=wrap;html=1;strokeColor=none;fillColor=#F8EDE3;" parent="N-9yIsKkOp0_mu_NHLMs-59" vertex="1">
          <mxGeometry x="24.27454545454549" y="206.67" width="60" height="60" as="geometry" />
        </mxCell>
        <mxCell id="N-9yIsKkOp0_mu_NHLMs-67" value="" style="ellipse;whiteSpace=wrap;html=1;strokeColor=none;fillColor=#F8EDE3;" parent="N-9yIsKkOp0_mu_NHLMs-59" vertex="1">
          <mxGeometry x="24.274545454545496" y="53.33000000000004" width="60" height="60" as="geometry" />
        </mxCell>
        <mxCell id="N-9yIsKkOp0_mu_NHLMs-68" value="" style="ellipse;whiteSpace=wrap;html=1;fillColor=#7D6E83;strokeColor=none;" parent="1" vertex="1">
          <mxGeometry x="910" y="1750" width="100" height="100" as="geometry" />
        </mxCell>
        <mxCell id="N-9yIsKkOp0_mu_NHLMs-69" value="" style="endArrow=none;html=1;rounded=0;strokeWidth=15;strokeColor=#F8EDE3;" parent="1" edge="1">
          <mxGeometry width="50" height="50" relative="1" as="geometry">
            <mxPoint x="899" y="1866" as="sourcePoint" />
            <mxPoint x="1022" y="1730" as="targetPoint" />
            <Array as="points" />
          </mxGeometry>
        </mxCell>
        <mxCell id="N-9yIsKkOp0_mu_NHLMs-70" value="" style="ellipse;whiteSpace=wrap;html=1;strokeColor=#F8EDE3;fillColor=#F8EDE3;" parent="1" vertex="1">
          <mxGeometry x="861" y="1846" width="60" height="60" as="geometry" />
        </mxCell>
        <mxCell id="N-9yIsKkOp0_mu_NHLMs-71" value="" style="endArrow=none;html=1;rounded=0;strokeWidth=15;exitX=0.5;exitY=0.5;exitDx=0;exitDy=0;exitPerimeter=0;strokeColor=#FFFFFF;" parent="1" edge="1">
          <mxGeometry width="50" height="50" relative="1" as="geometry">
            <mxPoint x="898" y="1724" as="sourcePoint" />
            <mxPoint x="877" y="1710" as="targetPoint" />
          </mxGeometry>
        </mxCell>
        <mxCell id="N-9yIsKkOp0_mu_NHLMs-72" value="" style="endArrow=none;html=1;rounded=0;strokeWidth=15;strokeColor=#F8EDE3;" parent="1" edge="1">
          <mxGeometry width="50" height="50" relative="1" as="geometry">
            <mxPoint x="1026" y="1873" as="sourcePoint" />
            <mxPoint x="898" y="1732" as="targetPoint" />
          </mxGeometry>
        </mxCell>
        <mxCell id="N-9yIsKkOp0_mu_NHLMs-73" value="" style="ellipse;whiteSpace=wrap;html=1;strokeColor=#F8EDE3;fillColor=#F8EDE3;" parent="1" vertex="1">
          <mxGeometry x="861" y="1694" width="60" height="60" as="geometry" />
        </mxCell>
        <mxCell id="N-9yIsKkOp0_mu_NHLMs-74" value="" style="endArrow=none;html=1;rounded=0;strokeWidth=15;strokeColor=#F8EDE3;entryX=0.5;entryY=0;entryDx=0;entryDy=0;exitX=0.5;exitY=1;exitDx=0;exitDy=0;" parent="1" source="N-9yIsKkOp0_mu_NHLMs-51" target="N-9yIsKkOp0_mu_NHLMs-51" edge="1">
          <mxGeometry width="50" height="50" relative="1" as="geometry">
            <mxPoint x="959.67" y="1990" as="sourcePoint" />
            <mxPoint x="959.67" y="1840" as="targetPoint" />
            <Array as="points" />
          </mxGeometry>
        </mxCell>
        <mxCell id="X_MjAL0PS5dbDgNzfMxT-18" value="" style="ellipse;whiteSpace=wrap;html=1;fillColor=#4C6EF5;strokeColor=none;" vertex="1" parent="1">
          <mxGeometry x="910" y="2230" width="100" height="100" as="geometry" />
        </mxCell>
        <mxCell id="X_MjAL0PS5dbDgNzfMxT-19" value="" style="endArrow=none;html=1;rounded=0;strokeWidth=15;strokeColor=#F5F7FA;" edge="1" parent="1">
          <mxGeometry width="50" height="50" relative="1" as="geometry">
            <mxPoint x="899" y="2346" as="sourcePoint" />
            <mxPoint x="1022" y="2210" as="targetPoint" />
            <Array as="points" />
          </mxGeometry>
        </mxCell>
        <mxCell id="X_MjAL0PS5dbDgNzfMxT-20" value="" style="ellipse;whiteSpace=wrap;html=1;strokeColor=none;fillColor=#F5F7FA;" vertex="1" parent="1">
          <mxGeometry x="861" y="2326" width="60" height="60" as="geometry" />
        </mxCell>
        <mxCell id="X_MjAL0PS5dbDgNzfMxT-21" value="" style="endArrow=none;html=1;rounded=0;strokeWidth=15;exitX=0.5;exitY=0.5;exitDx=0;exitDy=0;exitPerimeter=0;strokeColor=#FFFFFF;" edge="1" parent="1">
          <mxGeometry width="50" height="50" relative="1" as="geometry">
            <mxPoint x="898" y="2204" as="sourcePoint" />
            <mxPoint x="877" y="2190" as="targetPoint" />
          </mxGeometry>
        </mxCell>
        <mxCell id="X_MjAL0PS5dbDgNzfMxT-22" value="" style="endArrow=none;html=1;rounded=0;strokeWidth=15;strokeColor=#F5F7FA;" edge="1" parent="1">
          <mxGeometry width="50" height="50" relative="1" as="geometry">
            <mxPoint x="1026" y="2353" as="sourcePoint" />
            <mxPoint x="898" y="2212" as="targetPoint" />
          </mxGeometry>
        </mxCell>
        <mxCell id="X_MjAL0PS5dbDgNzfMxT-23" value="" style="ellipse;whiteSpace=wrap;html=1;strokeColor=none;fillColor=#F5F7FA;" vertex="1" parent="1">
          <mxGeometry x="861" y="2174" width="60" height="60" as="geometry" />
        </mxCell>
        <mxCell id="X_MjAL0PS5dbDgNzfMxT-24" value="" style="endArrow=none;html=1;rounded=0;strokeWidth=15;strokeColor=#F5F7FA;entryX=0.5;entryY=0;entryDx=0;entryDy=0;exitX=0.5;exitY=1;exitDx=0;exitDy=0;" edge="1" parent="1" source="X_MjAL0PS5dbDgNzfMxT-1" target="X_MjAL0PS5dbDgNzfMxT-1">
          <mxGeometry width="50" height="50" relative="1" as="geometry">
            <mxPoint x="959.6700000000001" y="2470" as="sourcePoint" />
            <mxPoint x="959.6700000000001" y="2320" as="targetPoint" />
            <Array as="points" />
          </mxGeometry>
        </mxCell>
        <mxCell id="X_MjAL0PS5dbDgNzfMxT-10" value="" style="ellipse;whiteSpace=wrap;html=1;fillColor=#4C6EF5;strokeColor=none;rotation=-180;" vertex="1" parent="1">
          <mxGeometry x="967.5454545454545" y="2360" width="87.27272727272727" height="80" as="geometry" />
        </mxCell>
        <mxCell id="X_MjAL0PS5dbDgNzfMxT-11" value="" style="ellipse;whiteSpace=wrap;html=1;fillColor=#4C6EF5;strokeColor=none;rotation=-180;" vertex="1" parent="1">
          <mxGeometry x="1011.1818181818181" y="2306.6666666666665" width="87.27272727272727" height="80" as="geometry" />
        </mxCell>
        <mxCell id="X_MjAL0PS5dbDgNzfMxT-12" value="" style="ellipse;whiteSpace=wrap;html=1;fillColor=#4C6EF5;strokeColor=none;rotation=-180;" vertex="1" parent="1">
          <mxGeometry x="1025.7272727272727" y="2240" width="87.27272727272727" height="80" as="geometry" />
        </mxCell>
        <mxCell id="X_MjAL0PS5dbDgNzfMxT-13" value="" style="ellipse;whiteSpace=wrap;html=1;fillColor=#4C6EF5;strokeColor=none;rotation=-180;" vertex="1" parent="1">
          <mxGeometry x="1011.1818181818181" y="2173.3333333333335" width="87.27272727272727" height="80" as="geometry" />
        </mxCell>
        <mxCell id="X_MjAL0PS5dbDgNzfMxT-14" value="" style="ellipse;whiteSpace=wrap;html=1;fillColor=#4C6EF5;strokeColor=none;rotation=-180;" vertex="1" parent="1">
          <mxGeometry x="967.5454545454545" y="2120" width="87.27272727272727" height="80" as="geometry" />
        </mxCell>
        <mxCell id="X_MjAL0PS5dbDgNzfMxT-16" value="" style="ellipse;whiteSpace=wrap;html=1;strokeColor=none;fillColor=#F5F7FA;" vertex="1" parent="1">
          <mxGeometry x="998.8199999999999" y="2326.67" width="60" height="60" as="geometry" />
        </mxCell>
        <mxCell id="X_MjAL0PS5dbDgNzfMxT-17" value="" style="ellipse;whiteSpace=wrap;html=1;strokeColor=none;fillColor=#F5F7FA;" vertex="1" parent="1">
          <mxGeometry x="998.82" y="2173.33" width="60" height="60" as="geometry" />
        </mxCell>
        <mxCell id="X_MjAL0PS5dbDgNzfMxT-25" value="" style="rounded=0;whiteSpace=wrap;html=1;fillColor=#F5F7FA;strokeColor=none;arcSize=10;" vertex="1" parent="1">
          <mxGeometry x="760" y="2560" width="400" height="400" as="geometry" />
        </mxCell>
        <mxCell id="X_MjAL0PS5dbDgNzfMxT-26" value="" style="rounded=0;whiteSpace=wrap;html=1;strokeColor=none;fillColor=#2F2F37;rotation=-180;" vertex="1" parent="1">
          <mxGeometry x="967.5454545454545" y="2640" width="72.72727272727275" height="240" as="geometry" />
        </mxCell>
        <mxCell id="X_MjAL0PS5dbDgNzfMxT-27" value="" style="ellipse;whiteSpace=wrap;html=1;fillColor=#2F2F37;strokeColor=none;" vertex="1" parent="1">
          <mxGeometry x="865.1818181818182" y="2600" width="87.27272727272727" height="80" as="geometry" />
        </mxCell>
        <mxCell id="X_MjAL0PS5dbDgNzfMxT-28" value="" style="ellipse;whiteSpace=wrap;html=1;fillColor=#2F2F37;strokeColor=none;" vertex="1" parent="1">
          <mxGeometry x="821.5454545454545" y="2653.3333333333335" width="87.27272727272727" height="80" as="geometry" />
        </mxCell>
        <mxCell id="X_MjAL0PS5dbDgNzfMxT-29" value="" style="ellipse;whiteSpace=wrap;html=1;fillColor=#2F2F37;strokeColor=none;" vertex="1" parent="1">
          <mxGeometry x="807" y="2720" width="87.27272727272727" height="80" as="geometry" />
        </mxCell>
        <mxCell id="X_MjAL0PS5dbDgNzfMxT-30" value="" style="ellipse;whiteSpace=wrap;html=1;fillColor=#2F2F37;strokeColor=none;" vertex="1" parent="1">
          <mxGeometry x="821.5454545454545" y="2786.6666666666665" width="87.27272727272727" height="80" as="geometry" />
        </mxCell>
        <mxCell id="X_MjAL0PS5dbDgNzfMxT-31" value="" style="ellipse;whiteSpace=wrap;html=1;fillColor=#2F2F37;strokeColor=none;" vertex="1" parent="1">
          <mxGeometry x="865.1818181818182" y="2840" width="87.27272727272727" height="80" as="geometry" />
        </mxCell>
        <mxCell id="X_MjAL0PS5dbDgNzfMxT-32" value="" style="rounded=0;whiteSpace=wrap;html=1;strokeColor=none;fillColor=#2F2F37;" vertex="1" parent="1">
          <mxGeometry x="879.7272727272727" y="2640" width="72.72727272727275" height="240" as="geometry" />
        </mxCell>
        <mxCell id="X_MjAL0PS5dbDgNzfMxT-33" value="" style="ellipse;whiteSpace=wrap;html=1;fillColor=#2F2F37;strokeColor=none;" vertex="1" parent="1">
          <mxGeometry x="910" y="2710" width="100" height="100" as="geometry" />
        </mxCell>
        <mxCell id="X_MjAL0PS5dbDgNzfMxT-34" value="" style="endArrow=none;html=1;rounded=0;strokeWidth=15;strokeColor=#F5F7FA;" edge="1" parent="1">
          <mxGeometry width="50" height="50" relative="1" as="geometry">
            <mxPoint x="899" y="2826" as="sourcePoint" />
            <mxPoint x="1022" y="2690" as="targetPoint" />
            <Array as="points" />
          </mxGeometry>
        </mxCell>
        <mxCell id="X_MjAL0PS5dbDgNzfMxT-35" value="" style="ellipse;whiteSpace=wrap;html=1;strokeColor=none;fillColor=#F5F7FA;" vertex="1" parent="1">
          <mxGeometry x="861" y="2806" width="60" height="60" as="geometry" />
        </mxCell>
        <mxCell id="X_MjAL0PS5dbDgNzfMxT-36" value="" style="endArrow=none;html=1;rounded=0;strokeWidth=15;exitX=0.5;exitY=0.5;exitDx=0;exitDy=0;exitPerimeter=0;strokeColor=#FFFFFF;" edge="1" parent="1">
          <mxGeometry width="50" height="50" relative="1" as="geometry">
            <mxPoint x="898" y="2684" as="sourcePoint" />
            <mxPoint x="877" y="2670" as="targetPoint" />
          </mxGeometry>
        </mxCell>
        <mxCell id="X_MjAL0PS5dbDgNzfMxT-37" value="" style="endArrow=none;html=1;rounded=0;strokeWidth=15;strokeColor=#F5F7FA;" edge="1" parent="1">
          <mxGeometry width="50" height="50" relative="1" as="geometry">
            <mxPoint x="1026" y="2833" as="sourcePoint" />
            <mxPoint x="898" y="2692" as="targetPoint" />
          </mxGeometry>
        </mxCell>
        <mxCell id="X_MjAL0PS5dbDgNzfMxT-38" value="" style="ellipse;whiteSpace=wrap;html=1;strokeColor=none;fillColor=#F5F7FA;" vertex="1" parent="1">
          <mxGeometry x="861" y="2654" width="60" height="60" as="geometry" />
        </mxCell>
        <mxCell id="X_MjAL0PS5dbDgNzfMxT-39" value="" style="endArrow=none;html=1;rounded=0;strokeWidth=15;strokeColor=#F5F7FA;entryX=0.5;entryY=0;entryDx=0;entryDy=0;exitX=0.5;exitY=1;exitDx=0;exitDy=0;" edge="1" parent="1" source="X_MjAL0PS5dbDgNzfMxT-25" target="X_MjAL0PS5dbDgNzfMxT-25">
          <mxGeometry width="50" height="50" relative="1" as="geometry">
            <mxPoint x="959.6700000000001" y="2950" as="sourcePoint" />
            <mxPoint x="959.6700000000001" y="2800" as="targetPoint" />
            <Array as="points" />
          </mxGeometry>
        </mxCell>
        <mxCell id="X_MjAL0PS5dbDgNzfMxT-40" value="" style="ellipse;whiteSpace=wrap;html=1;fillColor=#2F2F37;strokeColor=none;rotation=-180;" vertex="1" parent="1">
          <mxGeometry x="967.5454545454545" y="2840" width="87.27272727272727" height="80" as="geometry" />
        </mxCell>
        <mxCell id="X_MjAL0PS5dbDgNzfMxT-41" value="" style="ellipse;whiteSpace=wrap;html=1;fillColor=#2F2F37;strokeColor=none;rotation=-180;" vertex="1" parent="1">
          <mxGeometry x="1011.181818181818" y="2786.6666666666665" width="87.27272727272727" height="80" as="geometry" />
        </mxCell>
        <mxCell id="X_MjAL0PS5dbDgNzfMxT-42" value="" style="ellipse;whiteSpace=wrap;html=1;fillColor=#2F2F37;strokeColor=none;rotation=-180;" vertex="1" parent="1">
          <mxGeometry x="1025.7272727272727" y="2720" width="87.27272727272727" height="80" as="geometry" />
        </mxCell>
        <mxCell id="X_MjAL0PS5dbDgNzfMxT-43" value="" style="ellipse;whiteSpace=wrap;html=1;fillColor=#2F2F37;strokeColor=none;rotation=-180;" vertex="1" parent="1">
          <mxGeometry x="1011.181818181818" y="2653.3333333333335" width="87.27272727272727" height="80" as="geometry" />
        </mxCell>
        <mxCell id="X_MjAL0PS5dbDgNzfMxT-44" value="" style="ellipse;whiteSpace=wrap;html=1;fillColor=#2F2F37;strokeColor=none;rotation=-180;" vertex="1" parent="1">
          <mxGeometry x="967.5454545454545" y="2600" width="87.27272727272727" height="80" as="geometry" />
        </mxCell>
        <mxCell id="X_MjAL0PS5dbDgNzfMxT-45" value="" style="ellipse;whiteSpace=wrap;html=1;strokeColor=none;fillColor=#F5F7FA;" vertex="1" parent="1">
          <mxGeometry x="998.8199999999999" y="2806.67" width="60" height="60" as="geometry" />
        </mxCell>
        <mxCell id="X_MjAL0PS5dbDgNzfMxT-46" value="" style="ellipse;whiteSpace=wrap;html=1;strokeColor=none;fillColor=#F5F7FA;" vertex="1" parent="1">
          <mxGeometry x="998.8200000000002" y="2653.33" width="60" height="60" as="geometry" />
        </mxCell>
        <mxCell id="X_MjAL0PS5dbDgNzfMxT-48" value="" style="rounded=0;whiteSpace=wrap;html=1;fillColor=#F5F7FA;strokeColor=none;arcSize=10;" vertex="1" parent="1">
          <mxGeometry x="760" y="3040" width="2080" height="400" as="geometry" />
        </mxCell>
        <mxCell id="X_MjAL0PS5dbDgNzfMxT-49" value="" style="rounded=0;whiteSpace=wrap;html=1;strokeColor=none;fillColor=#2F2F37;rotation=-180;" vertex="1" parent="1">
          <mxGeometry x="967.5454545454545" y="3120" width="72.72727272727275" height="240" as="geometry" />
        </mxCell>
        <mxCell id="X_MjAL0PS5dbDgNzfMxT-50" value="" style="ellipse;whiteSpace=wrap;html=1;fillColor=#2F2F37;strokeColor=none;" vertex="1" parent="1">
          <mxGeometry x="865.1818181818182" y="3080" width="87.27272727272727" height="80" as="geometry" />
        </mxCell>
        <mxCell id="X_MjAL0PS5dbDgNzfMxT-51" value="" style="ellipse;whiteSpace=wrap;html=1;fillColor=#2F2F37;strokeColor=none;" vertex="1" parent="1">
          <mxGeometry x="821.5454545454545" y="3133.3333333333335" width="87.27272727272727" height="80" as="geometry" />
        </mxCell>
        <mxCell id="X_MjAL0PS5dbDgNzfMxT-52" value="" style="ellipse;whiteSpace=wrap;html=1;fillColor=#2F2F37;strokeColor=none;" vertex="1" parent="1">
          <mxGeometry x="807" y="3200" width="87.27272727272727" height="80" as="geometry" />
        </mxCell>
        <mxCell id="X_MjAL0PS5dbDgNzfMxT-53" value="" style="ellipse;whiteSpace=wrap;html=1;fillColor=#2F2F37;strokeColor=none;" vertex="1" parent="1">
          <mxGeometry x="821.5454545454545" y="3266.6666666666665" width="87.27272727272727" height="80" as="geometry" />
        </mxCell>
        <mxCell id="X_MjAL0PS5dbDgNzfMxT-54" value="" style="ellipse;whiteSpace=wrap;html=1;fillColor=#2F2F37;strokeColor=none;" vertex="1" parent="1">
          <mxGeometry x="865.1818181818182" y="3320" width="87.27272727272727" height="80" as="geometry" />
        </mxCell>
        <mxCell id="X_MjAL0PS5dbDgNzfMxT-55" value="" style="rounded=0;whiteSpace=wrap;html=1;strokeColor=none;fillColor=#2F2F37;" vertex="1" parent="1">
          <mxGeometry x="879.7272727272727" y="3120" width="72.72727272727275" height="240" as="geometry" />
        </mxCell>
        <mxCell id="X_MjAL0PS5dbDgNzfMxT-57" value="" style="endArrow=none;html=1;rounded=0;strokeWidth=15;strokeColor=#F5F7FA;" edge="1" parent="1">
          <mxGeometry width="50" height="50" relative="1" as="geometry">
            <mxPoint x="899" y="3306" as="sourcePoint" />
            <mxPoint x="1022" y="3170" as="targetPoint" />
            <Array as="points" />
          </mxGeometry>
        </mxCell>
        <mxCell id="X_MjAL0PS5dbDgNzfMxT-58" value="" style="ellipse;whiteSpace=wrap;html=1;strokeColor=none;fillColor=#F5F7FA;" vertex="1" parent="1">
          <mxGeometry x="861" y="3286" width="60" height="60" as="geometry" />
        </mxCell>
        <mxCell id="X_MjAL0PS5dbDgNzfMxT-59" value="" style="endArrow=none;html=1;rounded=0;strokeWidth=15;exitX=0.5;exitY=0.5;exitDx=0;exitDy=0;exitPerimeter=0;strokeColor=#FFFFFF;" edge="1" parent="1">
          <mxGeometry width="50" height="50" relative="1" as="geometry">
            <mxPoint x="898" y="3164" as="sourcePoint" />
            <mxPoint x="877" y="3150" as="targetPoint" />
          </mxGeometry>
        </mxCell>
        <mxCell id="X_MjAL0PS5dbDgNzfMxT-60" value="" style="endArrow=none;html=1;rounded=0;strokeWidth=15;strokeColor=#F5F7FA;" edge="1" parent="1">
          <mxGeometry width="50" height="50" relative="1" as="geometry">
            <mxPoint x="1026" y="3313" as="sourcePoint" />
            <mxPoint x="898" y="3172" as="targetPoint" />
          </mxGeometry>
        </mxCell>
        <mxCell id="X_MjAL0PS5dbDgNzfMxT-61" value="" style="ellipse;whiteSpace=wrap;html=1;strokeColor=none;fillColor=#F5F7FA;" vertex="1" parent="1">
          <mxGeometry x="861" y="3134" width="60" height="60" as="geometry" />
        </mxCell>
        <mxCell id="X_MjAL0PS5dbDgNzfMxT-62" value="" style="endArrow=none;html=1;rounded=0;strokeWidth=15;strokeColor=#F5F7FA;entryX=0.5;entryY=0;entryDx=0;entryDy=0;exitX=0.5;exitY=1;exitDx=0;exitDy=0;" edge="1" parent="1" source="X_MjAL0PS5dbDgNzfMxT-48" target="X_MjAL0PS5dbDgNzfMxT-48">
          <mxGeometry width="50" height="50" relative="1" as="geometry">
            <mxPoint x="959.6700000000001" y="3430" as="sourcePoint" />
            <mxPoint x="959.6700000000001" y="3280" as="targetPoint" />
            <Array as="points" />
          </mxGeometry>
        </mxCell>
        <mxCell id="X_MjAL0PS5dbDgNzfMxT-63" value="" style="ellipse;whiteSpace=wrap;html=1;fillColor=#2F2F37;strokeColor=none;rotation=-180;" vertex="1" parent="1">
          <mxGeometry x="967.5454545454545" y="3320" width="87.27272727272727" height="80" as="geometry" />
        </mxCell>
        <mxCell id="X_MjAL0PS5dbDgNzfMxT-64" value="" style="ellipse;whiteSpace=wrap;html=1;fillColor=#2F2F37;strokeColor=none;rotation=-180;" vertex="1" parent="1">
          <mxGeometry x="1011.181818181818" y="3266.6666666666665" width="87.27272727272727" height="80" as="geometry" />
        </mxCell>
        <mxCell id="X_MjAL0PS5dbDgNzfMxT-65" value="" style="ellipse;whiteSpace=wrap;html=1;fillColor=#2F2F37;strokeColor=none;rotation=-180;" vertex="1" parent="1">
          <mxGeometry x="1025.7272727272727" y="3200" width="87.27272727272727" height="80" as="geometry" />
        </mxCell>
        <mxCell id="X_MjAL0PS5dbDgNzfMxT-66" value="" style="ellipse;whiteSpace=wrap;html=1;fillColor=#2F2F37;strokeColor=none;rotation=-180;" vertex="1" parent="1">
          <mxGeometry x="1011.181818181818" y="3133.3333333333335" width="87.27272727272727" height="80" as="geometry" />
        </mxCell>
        <mxCell id="X_MjAL0PS5dbDgNzfMxT-67" value="" style="ellipse;whiteSpace=wrap;html=1;fillColor=#2F2F37;strokeColor=none;rotation=-180;" vertex="1" parent="1">
          <mxGeometry x="967.5454545454545" y="3080" width="87.27272727272727" height="80" as="geometry" />
        </mxCell>
        <mxCell id="X_MjAL0PS5dbDgNzfMxT-68" value="" style="ellipse;whiteSpace=wrap;html=1;strokeColor=none;fillColor=#F5F7FA;" vertex="1" parent="1">
          <mxGeometry x="998.8199999999999" y="3286.67" width="60" height="60" as="geometry" />
        </mxCell>
        <mxCell id="X_MjAL0PS5dbDgNzfMxT-69" value="" style="ellipse;whiteSpace=wrap;html=1;strokeColor=none;fillColor=#F5F7FA;" vertex="1" parent="1">
          <mxGeometry x="998.8200000000002" y="3133.33" width="60" height="60" as="geometry" />
        </mxCell>
        <mxCell id="X_MjAL0PS5dbDgNzfMxT-70" value="MindMapFlow" style="text;html=1;whiteSpace=wrap;strokeColor=none;fillColor=none;align=center;verticalAlign=middle;rounded=0;fontSize=220;fontStyle=1;fontFamily=Montserrat;fontSource=https%3A%2F%2Ffonts.googleapis.com%2Fcss%3Ffamily%3DMontserrat;fontColor=#2F2F37;" vertex="1" parent="1">
          <mxGeometry x="1400" y="3080" width="1170" height="320" as="geometry" />
        </mxCell>
        <mxCell id="X_MjAL0PS5dbDgNzfMxT-71" value="" style="rounded=1;whiteSpace=wrap;html=1;fillColor=#F5F7FA;strokeColor=none;arcSize=11;" vertex="1" parent="1">
          <mxGeometry x="237.5" y="2560" width="400" height="400" as="geometry" />
        </mxCell>
        <mxCell id="X_MjAL0PS5dbDgNzfMxT-72" value="" style="rounded=0;whiteSpace=wrap;html=1;strokeColor=none;fillColor=#2F2F37;rotation=-180;" vertex="1" parent="1">
          <mxGeometry x="445.0454545454545" y="2640" width="72.72727272727275" height="240" as="geometry" />
        </mxCell>
        <mxCell id="X_MjAL0PS5dbDgNzfMxT-73" value="" style="ellipse;whiteSpace=wrap;html=1;fillColor=#2F2F37;strokeColor=none;" vertex="1" parent="1">
          <mxGeometry x="342.68181818181824" y="2600" width="87.27272727272727" height="80" as="geometry" />
        </mxCell>
        <mxCell id="X_MjAL0PS5dbDgNzfMxT-74" value="" style="ellipse;whiteSpace=wrap;html=1;fillColor=#2F2F37;strokeColor=none;" vertex="1" parent="1">
          <mxGeometry x="299.0454545454545" y="2653.3333333333335" width="87.27272727272727" height="80" as="geometry" />
        </mxCell>
        <mxCell id="X_MjAL0PS5dbDgNzfMxT-75" value="" style="ellipse;whiteSpace=wrap;html=1;fillColor=#2F2F37;strokeColor=none;" vertex="1" parent="1">
          <mxGeometry x="284.5" y="2720" width="87.27272727272727" height="80" as="geometry" />
        </mxCell>
        <mxCell id="X_MjAL0PS5dbDgNzfMxT-76" value="" style="ellipse;whiteSpace=wrap;html=1;fillColor=#2F2F37;strokeColor=none;" vertex="1" parent="1">
          <mxGeometry x="299.0454545454545" y="2786.6666666666665" width="87.27272727272727" height="80" as="geometry" />
        </mxCell>
        <mxCell id="X_MjAL0PS5dbDgNzfMxT-77" value="" style="ellipse;whiteSpace=wrap;html=1;fillColor=#2F2F37;strokeColor=none;" vertex="1" parent="1">
          <mxGeometry x="342.68181818181824" y="2840" width="87.27272727272727" height="80" as="geometry" />
        </mxCell>
        <mxCell id="X_MjAL0PS5dbDgNzfMxT-78" value="" style="rounded=0;whiteSpace=wrap;html=1;strokeColor=none;fillColor=#2F2F37;" vertex="1" parent="1">
          <mxGeometry x="357.22727272727275" y="2640" width="72.72727272727275" height="240" as="geometry" />
        </mxCell>
        <mxCell id="X_MjAL0PS5dbDgNzfMxT-79" value="" style="ellipse;whiteSpace=wrap;html=1;fillColor=#2F2F37;strokeColor=none;" vertex="1" parent="1">
          <mxGeometry x="387.5" y="2710" width="100" height="100" as="geometry" />
        </mxCell>
        <mxCell id="X_MjAL0PS5dbDgNzfMxT-80" value="" style="endArrow=none;html=1;rounded=0;strokeWidth=15;strokeColor=#F5F7FA;" edge="1" parent="1">
          <mxGeometry width="50" height="50" relative="1" as="geometry">
            <mxPoint x="376.5" y="2826" as="sourcePoint" />
            <mxPoint x="499.5" y="2690" as="targetPoint" />
            <Array as="points" />
          </mxGeometry>
        </mxCell>
        <mxCell id="X_MjAL0PS5dbDgNzfMxT-81" value="" style="ellipse;whiteSpace=wrap;html=1;strokeColor=none;fillColor=#F5F7FA;" vertex="1" parent="1">
          <mxGeometry x="338.5" y="2806" width="60" height="60" as="geometry" />
        </mxCell>
        <mxCell id="X_MjAL0PS5dbDgNzfMxT-82" value="" style="endArrow=none;html=1;rounded=0;strokeWidth=15;exitX=0.5;exitY=0.5;exitDx=0;exitDy=0;exitPerimeter=0;strokeColor=#FFFFFF;" edge="1" parent="1">
          <mxGeometry width="50" height="50" relative="1" as="geometry">
            <mxPoint x="375.5" y="2684" as="sourcePoint" />
            <mxPoint x="354.5" y="2670" as="targetPoint" />
          </mxGeometry>
        </mxCell>
        <mxCell id="X_MjAL0PS5dbDgNzfMxT-83" value="" style="endArrow=none;html=1;rounded=0;strokeWidth=15;strokeColor=#F5F7FA;" edge="1" parent="1">
          <mxGeometry width="50" height="50" relative="1" as="geometry">
            <mxPoint x="503.5" y="2833" as="sourcePoint" />
            <mxPoint x="375.5" y="2692" as="targetPoint" />
          </mxGeometry>
        </mxCell>
        <mxCell id="X_MjAL0PS5dbDgNzfMxT-84" value="" style="ellipse;whiteSpace=wrap;html=1;strokeColor=none;fillColor=#F5F7FA;" vertex="1" parent="1">
          <mxGeometry x="338.5" y="2654" width="60" height="60" as="geometry" />
        </mxCell>
        <mxCell id="X_MjAL0PS5dbDgNzfMxT-85" value="" style="endArrow=none;html=1;rounded=0;strokeWidth=15;strokeColor=#F5F7FA;entryX=0.5;entryY=0;entryDx=0;entryDy=0;exitX=0.5;exitY=1;exitDx=0;exitDy=0;" edge="1" parent="1" source="X_MjAL0PS5dbDgNzfMxT-71" target="X_MjAL0PS5dbDgNzfMxT-71">
          <mxGeometry width="50" height="50" relative="1" as="geometry">
            <mxPoint x="437.1700000000001" y="2950" as="sourcePoint" />
            <mxPoint x="437.1700000000001" y="2800" as="targetPoint" />
            <Array as="points" />
          </mxGeometry>
        </mxCell>
        <mxCell id="X_MjAL0PS5dbDgNzfMxT-86" value="" style="ellipse;whiteSpace=wrap;html=1;fillColor=#2F2F37;strokeColor=none;rotation=-180;" vertex="1" parent="1">
          <mxGeometry x="445.0454545454545" y="2840" width="87.27272727272727" height="80" as="geometry" />
        </mxCell>
        <mxCell id="X_MjAL0PS5dbDgNzfMxT-87" value="" style="ellipse;whiteSpace=wrap;html=1;fillColor=#2F2F37;strokeColor=none;rotation=-180;" vertex="1" parent="1">
          <mxGeometry x="488.681818181818" y="2786.6666666666665" width="87.27272727272727" height="80" as="geometry" />
        </mxCell>
        <mxCell id="X_MjAL0PS5dbDgNzfMxT-88" value="" style="ellipse;whiteSpace=wrap;html=1;fillColor=#2F2F37;strokeColor=none;rotation=-180;" vertex="1" parent="1">
          <mxGeometry x="503.22727272727275" y="2720" width="87.27272727272727" height="80" as="geometry" />
        </mxCell>
        <mxCell id="X_MjAL0PS5dbDgNzfMxT-89" value="" style="ellipse;whiteSpace=wrap;html=1;fillColor=#2F2F37;strokeColor=none;rotation=-180;" vertex="1" parent="1">
          <mxGeometry x="488.681818181818" y="2653.3333333333335" width="87.27272727272727" height="80" as="geometry" />
        </mxCell>
        <mxCell id="X_MjAL0PS5dbDgNzfMxT-90" value="" style="ellipse;whiteSpace=wrap;html=1;fillColor=#2F2F37;strokeColor=none;rotation=-180;" vertex="1" parent="1">
          <mxGeometry x="445.0454545454545" y="2600" width="87.27272727272727" height="80" as="geometry" />
        </mxCell>
        <mxCell id="X_MjAL0PS5dbDgNzfMxT-91" value="" style="ellipse;whiteSpace=wrap;html=1;strokeColor=none;fillColor=#F5F7FA;" vertex="1" parent="1">
          <mxGeometry x="476.31999999999994" y="2806.67" width="60" height="60" as="geometry" />
        </mxCell>
        <mxCell id="X_MjAL0PS5dbDgNzfMxT-92" value="" style="ellipse;whiteSpace=wrap;html=1;strokeColor=none;fillColor=#F5F7FA;" vertex="1" parent="1">
          <mxGeometry x="476.32000000000016" y="2653.33" width="60" height="60" as="geometry" />
        </mxCell>
      </root>
    </mxGraphModel>
  </diagram>
</mxfile>
